<svg width="36" height="36" viewBox="0 0 36 36" fill="none" xmlns="http://www.w3.org/2000/svg">
<path d="M36 18.1103C36 8.1068 27.9405 -0.00219727 18 -0.00219727C8.05498 5.27345e-05 -0.0045166 8.1068 -0.0045166 18.1126C-0.0045166 27.1508 6.57898 34.6433 15.183 36.0023V23.3461H10.6155V18.1126H15.1875V14.1188C15.1875 9.58055 17.8762 7.07405 21.987 7.07405C23.958 7.07405 26.0167 7.4273 26.0167 7.4273V11.8823H23.7465C21.5122 11.8823 20.8147 13.2796 20.8147 14.7128V18.1103H25.8052L25.0087 23.3438H20.8125V36.0001C29.4165 34.6411 36 27.1486 36 18.1103Z" fill="white"/>
</svg>
