<svg width="36" height="36" viewBox="0 0 36 36" fill="none" xmlns="http://www.w3.org/2000/svg">
<path d="M23.4 18C23.4 19.4321 22.8311 20.8057 21.8184 21.8183C20.8057 22.831 19.4322 23.4 18 23.4C16.5678 23.4 15.1943 22.831 14.1816 21.8183C13.1689 20.8057 12.6 19.4321 12.6 18C12.6 17.6922 12.6324 17.3916 12.6882 17.1H10.8V24.2946C10.8 24.795 11.205 25.2 11.7054 25.2H24.2964C24.5362 25.1995 24.766 25.1039 24.9354 24.9341C25.1049 24.7644 25.2 24.5344 25.2 24.2946V17.1H23.3118C23.3676 17.3916 23.4 17.6922 23.4 18ZM18 21.6C18.4729 21.5999 18.9411 21.5066 19.3779 21.3255C19.8148 21.1445 20.2117 20.8791 20.546 20.5447C20.8802 20.2102 21.1454 19.8132 21.3262 19.3762C21.5071 18.9393 21.6001 18.471 21.6 17.9982C21.5999 17.5253 21.5066 17.0571 21.3256 16.6202C21.1445 16.1834 20.8791 15.7865 20.5447 15.4522C20.2102 15.1179 19.8132 14.8528 19.3763 14.6719C18.9393 14.4911 18.4711 14.3981 17.9982 14.3982C17.0432 14.3984 16.1274 14.778 15.4522 15.4535C14.7771 16.129 14.398 17.045 14.3982 18C14.3984 18.955 14.778 19.8708 15.4535 20.5459C16.129 21.2211 17.045 21.6002 18 21.6ZM22.32 14.22H24.4782C24.6216 14.22 24.7591 14.1631 24.8607 14.0619C24.9622 13.9607 25.0195 13.8234 25.02 13.68V11.5218C25.02 11.3781 24.9629 11.2403 24.8613 11.1387C24.7597 11.0371 24.6219 10.98 24.4782 10.98H22.32C22.1763 10.98 22.0385 11.0371 21.9369 11.1387C21.8353 11.2403 21.7782 11.3781 21.7782 11.5218V13.68C21.78 13.977 22.023 14.22 22.32 14.22ZM18 0.719971C13.4171 0.719971 9.02182 2.54054 5.78119 5.78117C2.54056 9.02179 0.719994 13.417 0.719994 18C0.719994 22.5829 2.54056 26.9781 5.78119 30.2188C9.02182 33.4594 13.4171 35.28 18 35.28C20.2692 35.28 22.5163 34.833 24.6128 33.9646C26.7093 33.0962 28.6142 31.8234 30.2188 30.2188C31.8234 28.6142 33.0962 26.7092 33.9646 24.6127C34.833 22.5162 35.28 20.2692 35.28 18C35.28 15.7307 34.833 13.4837 33.9646 11.3872C33.0962 9.29069 31.8234 7.38576 30.2188 5.78117C28.6142 4.17657 26.7093 2.90373 24.6128 2.03533C22.5163 1.16693 20.2692 0.719971 18 0.719971ZM27 25.0002C27 26.1 26.1 27 25.0002 27H10.9998C9.89999 27 8.99999 26.1 8.99999 25.0002V10.9998C8.99999 9.89997 9.89999 8.99997 10.9998 8.99997H25.0002C26.1 8.99997 27 9.89997 27 10.9998V25.0002Z" fill="white"/>
</svg>
