<svg width="36" height="36" viewBox="0 0 36 36" fill="none" xmlns="http://www.w3.org/2000/svg">
<path d="M18 0.719971C8.4564 0.719971 0.719995 8.45637 0.719995 18C0.719995 27.5436 8.4564 35.28 18 35.28C27.5436 35.28 35.28 27.5436 35.28 18C35.28 8.45637 27.5436 0.719971 18 0.719971ZM25.029 14.8752C25.0362 15.0228 25.038 15.1704 25.038 15.3144C25.038 19.8144 21.6162 25.0002 15.3558 25.0002C13.5059 25.0032 11.6945 24.472 10.1394 23.4702C10.404 23.5026 10.6758 23.5152 10.9512 23.5152C12.546 23.5152 14.013 22.9734 15.1776 22.059C14.4679 22.045 13.7802 21.81 13.2104 21.3867C12.6406 20.9634 12.217 20.3728 11.9988 19.6974C12.5085 19.7943 13.0335 19.774 13.5342 19.638C12.7639 19.4822 12.0712 19.0648 11.5735 18.4566C11.0758 17.8483 10.8038 17.0867 10.8036 16.3008V16.2594C11.2626 16.5132 11.7882 16.668 12.3462 16.686C11.624 16.2052 11.1128 15.4668 10.9171 14.6216C10.7213 13.7764 10.8559 12.8884 11.2932 12.1392C12.1481 13.1904 13.2143 14.0503 14.4226 14.6633C15.631 15.2763 16.9546 15.6288 18.3078 15.6978C18.1358 14.9675 18.2098 14.2009 18.5184 13.5171C18.827 12.8333 19.3529 12.2706 20.0143 11.9164C20.6757 11.5623 21.4356 11.4367 22.1758 11.559C22.916 11.6813 23.5951 12.0447 24.1074 12.5928C24.8691 12.4421 25.5996 12.1627 26.2674 11.7666C26.0135 12.5552 25.482 13.2249 24.7716 13.6512C25.4463 13.5699 26.1052 13.3885 26.7264 13.113C26.2701 13.7968 25.6952 14.3936 25.029 14.8752Z" fill="white"/>
</svg>
